<svg xmlns="http://www.w3.org/2000/svg" viewBox="0 0 192 192" role="img" aria-label="Luna Meditation">
  <defs>
    <radialGradient id="bg" cx="50%" cy="42%" r="72%">
      <stop offset="0%" stop-color="#3e205f"/>
      <stop offset="58%" stop-color="#17102d"/>
      <stop offset="100%" stop-color="#080914"/>
    </radialGradient>
    <linearGradient id="gold" x1="40" x2="150" y1="34" y2="156">
      <stop offset="0%" stop-color="#fff4c8"/>
      <stop offset="48%" stop-color="#e5b94c"/>
      <stop offset="100%" stop-color="#8e641f"/>
    </linearGradient>
    <filter id="glow" x="-50%" y="-50%" width="200%" height="200%">
      <feGaussianBlur stdDeviation="4" result="blur"/>
      <feMerge>
        <feMergeNode in="blur"/>
        <feMergeNode in="SourceGraphic"/>
      </feMerge>
    </filter>
  </defs>
  <rect width="192" height="192" rx="44" fill="url(#bg)"/>
  <circle cx="96" cy="96" r="78" fill="none" stroke="url(#gold)" stroke-width="3"/>
  <path d="M115.2 47.8c-27.2 10.1-45.9 36-45.9 65.4 0 16.5 5.8 31.5 15.5 43.3-26.5-6.2-46.2-29.9-46.2-58.3 0-33.1 26.8-59.9 59.9-59.9 5.8 0 11.4.8 16.7 2.4z" fill="url(#gold)" filter="url(#glow)"/>
  <path d="M130.3 65.7l4.5 11.8 11.8 4.5-11.8 4.5-4.5 11.8-4.5-11.8-11.8-4.5 11.8-4.5 4.5-11.8zM144.5 112.7l2.6 6.9 6.9 2.6-6.9 2.6-2.6 6.9-2.6-6.9-6.9-2.6 6.9-2.6 2.6-6.9zM101.8 32.5l2.1 5.5 5.5 2.1-5.5 2.1-2.1 5.5-2.1-5.5-5.5-2.1 5.5-2.1 2.1-5.5z" fill="#f9dc86"/>
  <path d="M54 153h84" stroke="#d4af37" stroke-width="2" stroke-linecap="round" opacity=".55"/>
</svg>
